<?xml version="1.0" encoding="UTF-8"?>
<!-- Generator: CustomSymbols v2.7.2.48 by @serious_bret https://bretlester.com/app_content/CustomSymbols/ -->
<!-- Guides: Left/Right 0.0/0.0 Cap/Base 0.0/0.0 -->
<!-- Settings: RefScale 1.0 Min/Max Stroke Scales 0.5/2.21 -->
<!DOCTYPE svg
PUBLIC "-//W3C//DTD SVG 1.1//EN"
       "http://www.w3.org/Graphics/SVG/1.1/DTD/svg11.dtd">
<svg version="1.1" xmlns="http://www.w3.org/2000/svg" xmlns:xlink="http://www.w3.org/1999/xlink" width="3300" height="2200">
<![CDATA[<?xml version="1.0" encoding="UTF-8"?>
<svg id="Layer_1" data-name="Layer 1" xmlns="http://www.w3.org/2000/svg" viewBox="0 0 40 40">
  <defs>
    <style>
      .cls-1 {
        fill: #1976d2;
      }

      .cls-1, .cls-2, .cls-3, .cls-4 {
        stroke-width: 0px;
      }

      .cls-2 {
        fill: #ffc107;
      }

      .cls-3 {
        fill: #ff3d00;
      }

      .cls-4 {
        fill: #4caf50;
      }
    </style>
  </defs>
  <path class="cls-2" d="M39.61,16.08h-1.61v-.08h-18v8h11.3c-1.65,4.66-6.08,8-11.3,8-6.63,0-12-5.37-12-12s5.37-12,12-12c3.06,0,5.84,1.15,7.96,3.04l5.66-5.66C30.05,2.05,25.27,0,20,0,8.95,0,0,8.95,0,20s8.95,20,20,20,20-8.96,20-20c0-1.34-.14-2.65-.39-3.92Z"/>
  <path class="cls-3" d="M2.31,10.69l6.57,4.82c1.78-4.4,6.08-7.51,11.12-7.51,3.06,0,5.84,1.15,7.96,3.04l5.66-5.66C30.05,2.05,25.27,0,20,0,12.32,0,5.66,4.34,2.31,10.69Z"/>
  <path class="cls-4" d="M20,40c5.17,0,9.86-1.98,13.41-5.19l-6.19-5.24c-2.01,1.52-4.5,2.43-7.22,2.43-5.2,0-9.62-3.32-11.28-7.95l-6.52,5.03c3.31,6.48,10.03,10.92,17.8,10.92Z"/>
  <path class="cls-1" d="M39.61,16.08h-1.61v-.08h-18v8h11.3c-.79,2.24-2.23,4.17-4.09,5.57,0,0,0,0,0,0l6.19,5.24c-.44.4,6.59-4.81,6.59-14.81,0-1.34-.14-2.65-.39-3.92Z"/>
</svg>]]>
 <g id="Notes">
  <rect height="2200" id="artboard" style="fill:white;opacity:1" width="3300" x="0" y="0"/>
  <line id="" style="fill:none;stroke:black;opacity:1;stroke-width:0.5;" x1="263" x2="3036" y1="292" y2="292"/>
  <text id="reftext1" style="stroke:none;fill:black;font-family:-apple-system,&quot;SF Pro Display&quot;,&quot;SF Pro Text&quot;,Helvetica,sans-serif;font-weight:bold;" transform="matrix(1 0 0 1 263 322)">Weight/Scale Variations</text>
  <text id="reftext2" style="stroke:none;fill:black;font-family:-apple-system,&quot;SF Pro Display&quot;,&quot;SF Pro Text&quot;,Helvetica,sans-serif;text-anchor:middle;" transform="matrix(1 0 0 1 559.711 322)">Ultralight</text>
  <text style="stroke:none;fill:black;font-family:-apple-system,&quot;SF Pro Display&quot;,&quot;SF Pro Text&quot;,Helvetica,sans-serif;text-anchor:middle;" transform="matrix(1 0 0 1 856.422 322)">Thin</text>
  <text style="stroke:none;fill:black;font-family:-apple-system,&quot;SF Pro Display&quot;,&quot;SF Pro Text&quot;,Helvetica,sans-serif;text-anchor:middle;" transform="matrix(1 0 0 1 1153.13 322)">Light</text>
  <text style="stroke:none;fill:black;font-family:-apple-system,&quot;SF Pro Display&quot;,&quot;SF Pro Text&quot;,Helvetica,sans-serif;text-anchor:middle;" transform="matrix(1 0 0 1 1449.84 322)">Regular</text>
  <text style="stroke:none;fill:black;font-family:-apple-system,&quot;SF Pro Display&quot;,&quot;SF Pro Text&quot;,Helvetica,sans-serif;text-anchor:middle;" transform="matrix(1 0 0 1 1746.56 322)">Medium</text>
  <text style="stroke:none;fill:black;font-family:-apple-system,&quot;SF Pro Display&quot;,&quot;SF Pro Text&quot;,Helvetica,sans-serif;text-anchor:middle;" transform="matrix(1 0 0 1 2043.27 322)">Semibold</text>
  <text style="stroke:none;fill:black;font-family:-apple-system,&quot;SF Pro Display&quot;,&quot;SF Pro Text&quot;,Helvetica,sans-serif;text-anchor:middle;" transform="matrix(1 0 0 1 2339.98 322)">Bold</text>
  <text style="stroke:none;fill:black;font-family:-apple-system,&quot;SF Pro Display&quot;,&quot;SF Pro Text&quot;,Helvetica,sans-serif;text-anchor:middle;" transform="matrix(1 0 0 1 2636.69 322)">Heavy</text>
  <text style="stroke:none;fill:black;font-family:-apple-system,&quot;SF Pro Display&quot;,&quot;SF Pro Text&quot;,Helvetica,sans-serif;text-anchor:middle;" transform="matrix(1 0 0 1 2933.4 322)">Black</text>
  <line id="" style="fill:none;stroke:black;opacity:1;stroke-width:0.5;" x1="263" x2="3036" y1="1903" y2="1903"/>
  <g id="" transform="matrix(1 0 0 1 263 1933)">
   <path d="M9.24805 0.830078C13.5547 0.830078 17.1387-2.74414 17.1387-7.05078C17.1387-11.3574 13.5449-14.9316 9.23828-14.9316C4.94141-14.9316 1.36719-11.3574 1.36719-7.05078C1.36719-2.74414 4.95117 0.830078 9.24805 0.830078ZM9.24805-0.654297C5.70312-0.654297 2.87109-3.49609 2.87109-7.05078C2.87109-10.6055 5.69336-13.4473 9.23828-13.4473C12.793-13.4473 15.6348-10.6055 15.6445-7.05078C15.6543-3.49609 12.8027-0.654297 9.24805-0.654297ZM6.39648-6.31836L8.50586-6.31836L8.50586-4.19922C8.50586-3.75977 8.79883-3.45703 9.22852-3.45703C9.67773-3.45703 9.9707-3.75977 9.9707-4.19922L9.9707-6.31836L12.0996-6.31836C12.5391-6.31836 12.8418-6.61133 12.8418-7.04102C12.8418-7.48047 12.5391-7.7832 12.0996-7.7832L9.9707-7.7832L9.9707-9.89258C9.9707-10.3418 9.67773-10.6445 9.22852-10.6445C8.79883-10.6445 8.50586-10.3418 8.50586-9.89258L8.50586-7.7832L6.39648-7.7832C5.94727-7.7832 5.64453-7.48047 5.64453-7.04102C5.64453-6.61133 5.94727-6.31836 6.39648-6.31836Z"/>
  </g>
  <g id="" transform="matrix(1 0 0 1 281.506 1933)">
   <path d="M11.709 2.91016C17.1582 2.91016 21.6699-1.61133 21.6699-7.05078C21.6699-12.5 17.1484-17.0117 11.6992-17.0117C6.25977-17.0117 1.74805-12.5 1.74805-7.05078C1.74805-1.61133 6.26953 2.91016 11.709 2.91016ZM11.709 1.25C7.09961 1.25 3.41797-2.44141 3.41797-7.05078C3.41797-11.6602 7.08984-15.3516 11.6992-15.3516C16.3086-15.3516 20-11.6602 20.0098-7.05078C20.0195-2.44141 16.3184 1.25 11.709 1.25ZM7.98828-6.23047L10.8789-6.23047L10.8789-3.32031C10.8789-2.83203 11.2109-2.5 11.6895-2.5C12.1777-2.5 12.5195-2.83203 12.5195-3.32031L12.5195-6.23047L15.4297-6.23047C15.918-6.23047 16.25-6.5625 16.25-7.04102C16.25-7.5293 15.918-7.87109 15.4297-7.87109L12.5195-7.87109L12.5195-10.7617C12.5195-11.2695 12.1777-11.6016 11.6895-11.6016C11.2109-11.6016 10.8789-11.2598 10.8789-10.7617L10.8789-7.87109L7.98828-7.87109C7.48047-7.87109 7.14844-7.5293 7.14844-7.04102C7.14844-6.5625 7.49023-6.23047 7.98828-6.23047Z"/>
  </g>
  <g id="" transform="matrix(1 0 0 1 304.924 1933)">
   <path d="M14.9707 5.66406C21.9336 5.66406 27.6953-0.0976562 27.6953-7.05078C27.6953-14.0137 21.9238-19.7754 14.9609-19.7754C8.00781-19.7754 2.25586-14.0137 2.25586-7.05078C2.25586-0.0976562 8.01758 5.66406 14.9707 5.66406ZM14.9707 3.84766C8.93555 3.84766 4.08203-1.01562 4.08203-7.05078C4.08203-13.0957 8.92578-17.9492 14.9609-17.9492C21.0059-17.9492 25.8594-13.0957 25.8691-7.05078C25.8789-1.01562 21.0156 3.84766 14.9707 3.84766ZM10.0586-6.14258L14.0625-6.14258L14.0625-2.12891C14.0625-1.5918 14.4336-1.2207 14.9512-1.2207C15.4883-1.2207 15.8594-1.5918 15.8594-2.12891L15.8594-6.14258L19.8828-6.14258C20.4102-6.14258 20.791-6.51367 20.791-7.03125C20.791-7.56836 20.4199-7.94922 19.8828-7.94922L15.8594-7.94922L15.8594-11.9531C15.8594-12.5098 15.4883-12.8809 14.9512-12.8809C14.4336-12.8809 14.0625-12.5 14.0625-11.9531L14.0625-7.94922L10.0586-7.94922C9.50195-7.94922 9.13086-7.56836 9.13086-7.03125C9.13086-6.51367 9.51172-6.14258 10.0586-6.14258Z"/>
  </g>
  <text style="stroke:none;fill:black;font-family:-apple-system,&quot;SF Pro Display&quot;,&quot;SF Pro Text&quot;,Helvetica,sans-serif;font-weight:bold;" transform="matrix(1 0 0 1 263 1953)">Design Variations</text>
  <text style="stroke:none;fill:black;font-family:-apple-system,&quot;SF Pro Display&quot;,&quot;SF Pro Text&quot;,Helvetica,sans-serif;" transform="matrix(1 0 0 1 263 1971)">Symbols are supported in up to nine weights and three scales.</text>
  <text style="stroke:none;fill:black;font-family:-apple-system,&quot;SF Pro Display&quot;,&quot;SF Pro Text&quot;,Helvetica,sans-serif;" transform="matrix(1 0 0 1 263 1989)">For optimal layout with text and other symbols, vertically align</text>
  <text style="stroke:none;fill:black;font-family:-apple-system,&quot;SF Pro Display&quot;,&quot;SF Pro Text&quot;,Helvetica,sans-serif;" transform="matrix(1 0 0 1 263 2007)">symbols with the adjacent text.</text>
  <line id="" style="fill:none;stroke:#00AEEF;stroke-width:0.5;opacity:1.0;" x1="776" x2="776" y1="1919" y2="1933"/>
  <g id="" transform="matrix(1 0 0 1 776 1933)">
   <path d="M3.31055 0.126953C3.82812 0.126953 4.08203-0.0683594 4.26758-0.605469L5.52734-4.0625L11.2891-4.0625L12.5488-0.605469C12.7344-0.0683594 12.9883 0.126953 13.4961 0.126953C14.0137 0.126953 14.3457-0.185547 14.3457-0.673828C14.3457-0.839844 14.3164-0.986328 14.2383-1.20117L9.6582-13.3887C9.43359-13.9941 9.0332-14.2871 8.4082-14.2871C7.80273-14.2871 7.39258-13.9941 7.17773-13.3984L2.59766-1.19141C2.51953-0.976562 2.49023-0.830078 2.49023-0.664062C2.49023-0.175781 2.80273 0.126953 3.31055 0.126953ZM6.00586-5.53711L8.37891-12.1094L8.42773-12.1094L10.8008-5.53711Z"/>
  </g>
  <line id="" style="fill:none;stroke:#00AEEF;stroke-width:0.5;opacity:1.0;" x1="792.836" x2="792.836" y1="1919" y2="1933"/>
  <text style="stroke:none;fill:black;font-family:-apple-system,&quot;SF Pro Display&quot;,&quot;SF Pro Text&quot;,Helvetica,sans-serif;font-weight:bold;" transform="matrix(1 0 0 1 776 1953)">Margins</text>
  <text style="stroke:none;fill:black;font-family:-apple-system,&quot;SF Pro Display&quot;,&quot;SF Pro Text&quot;,Helvetica,sans-serif;" transform="matrix(1 0 0 1 776 1971)">Leading and trailing margins on the left and right side of each symbol</text>
  <text style="stroke:none;fill:black;font-family:-apple-system,&quot;SF Pro Display&quot;,&quot;SF Pro Text&quot;,Helvetica,sans-serif;" transform="matrix(1 0 0 1 776 1989)">can be adjusted by modifying the x-location of the margin guidelines.</text>
  <text style="stroke:none;fill:black;font-family:-apple-system,&quot;SF Pro Display&quot;,&quot;SF Pro Text&quot;,Helvetica,sans-serif;" transform="matrix(1 0 0 1 776 2007)">Modifications are automatically applied proportionally to all</text>
  <text style="stroke:none;fill:black;font-family:-apple-system,&quot;SF Pro Display&quot;,&quot;SF Pro Text&quot;,Helvetica,sans-serif;" transform="matrix(1 0 0 1 776 2025)">scales and weights.</text>
  <g id="" transform="matrix(1 0 0 1 1289 1933)">
   <path d="M2.8418 1.86523L4.54102 3.57422C5.40039 4.44336 6.38672 4.38477 7.31445 3.35938L17.4902-7.85156C17.7539-7.76367 18.0273-7.7832 18.3398-7.8418L19.4043-8.03711L20.0684-7.36328L20.0293-6.80664C19.9902-6.30859 20.1172-5.92773 20.6055-5.44922L21.3672-4.70703C21.8457-4.22852 22.4609-4.19922 22.9297-4.66797L25.8398-7.58789C26.3086-8.05664 26.2891-8.65234 25.8105-9.13086L25.0391-9.89258C24.5605-10.3711 24.1895-10.5273 23.7109-10.4883L23.1348-10.4395L22.4902-11.0742L22.7344-12.1973C22.8613-12.7637 22.7051-13.2031 22.1191-13.7891L19.9219-15.9766C16.582-19.2969 12.1484-19.2188 9.25781-16.3281C8.83789-15.918 8.80859-15.3418 9.04297-14.9512C9.27734-14.5898 9.73633-14.3555 10.3809-14.5215C11.8457-14.8633 13.3691-14.9219 14.7949-13.9844L14.209-12.5293C14.0137-12.0508 13.9844-11.6504 14.1113-11.2891L3.04688-0.898438C2.06055 0.0195312 1.98242 0.996094 2.8418 1.86523ZM10.752-15.957C13.1836-17.7344 16.4746-17.4316 18.7012-15.2051L21.1328-12.793C21.3672-12.5586 21.4062-12.373 21.3379-12.0312L21.0156-10.5469L22.5195-9.0625L23.5059-9.12109C23.7598-9.13086 23.8379-9.11133 24.0332-8.91602L24.6094-8.33984L22.168-5.89844L21.5918-6.47461C21.3965-6.66992 21.3672-6.74805 21.377-7.01172L21.4453-7.98828L19.9512-9.47266L18.4277-9.21875C18.1055-9.15039 17.959-9.17969 17.7148-9.41406L15.7129-11.416C15.459-11.6504 15.4297-11.8164 15.5859-12.1875L16.4648-14.2773C14.9023-15.7324 12.8711-16.3574 10.8398-15.7617C10.6836-15.7227 10.625-15.8496 10.752-15.957ZM5.27344 2.30469L4.10156 1.14258C3.63281 0.683594 3.74023 0.341797 4.14062-0.0195312L14.9512-10.1953L16.416-8.71094L6.42578 2.27539C6.07422 2.67578 5.74219 2.77344 5.27344 2.30469Z"/>
  </g>
  <text style="stroke:none;fill:black;font-family:-apple-system,&quot;SF Pro Display&quot;,&quot;SF Pro Text&quot;,Helvetica,sans-serif;font-weight:bold;" transform="matrix(1 0 0 1 1289 1953)">Exporting</text>
  <text style="stroke:none;fill:black;font-family:-apple-system,&quot;SF Pro Display&quot;,&quot;SF Pro Text&quot;,Helvetica,sans-serif;" transform="matrix(1 0 0 1 1289 1971)">Symbols should be outlined when exporting to ensure the</text>
  <text style="stroke:none;fill:black;font-family:-apple-system,&quot;SF Pro Display&quot;,&quot;SF Pro Text&quot;,Helvetica,sans-serif;" transform="matrix(1 0 0 1 1289 1989)">design is preserved when submitting to Xcode.</text>
  <text id="template-version" style="stroke:none;fill:black;font-family:-apple-system,&quot;SF Pro Display&quot;,&quot;SF Pro Text&quot;,Helvetica,sans-serif;text-anchor:end;" transform="matrix(1 0 0 1 3036 1933)">Template v.2.0</text>
  <text style="stroke:none;fill:black;font-family:-apple-system,&quot;SF Pro Display&quot;,&quot;SF Pro Text&quot;,Helvetica,sans-serif;text-anchor:end;" transform="matrix(1 0 0 1 3036 1951)">Requires Xcode 12 or greater</text>
  <text style="stroke:none;fill:black;font-family:-apple-system,&quot;SF Pro Display&quot;,&quot;SF Pro Text&quot;,Helvetica,sans-serif;" transform="matrix(1 0 0 1 263 726)">Small</text>
  <text style="stroke:none;fill:black;font-family:-apple-system,&quot;SF Pro Display&quot;,&quot;SF Pro Text&quot;,Helvetica,sans-serif;" transform="matrix(1 0 0 1 263 1156)">Medium</text>
  <text style="stroke:none;fill:black;font-family:-apple-system,&quot;SF Pro Display&quot;,&quot;SF Pro Text&quot;,Helvetica,sans-serif;" transform="matrix(1 0 0 1 263 1586)">Large</text>
 </g>
 <g id="Guides">
  <g id="H-reference" style="fill:#27AAE1;stroke:none;" transform="matrix(1 0 0 1 339 696)">
   <path d="M0.976562 0L3.66211 0L12.9883-24.4629L45.752-24.4629L55.127 0L57.7637 0L30.6152-70.459L28.125-70.459ZM29.3457-67.1387L29.4434-67.1387L44.873-26.709L13.8672-26.709Z"/>
  </g>
  <line id="Baseline-S" style="fill:none;stroke:#27AAE1;opacity:1;stroke-width:0.5;" x1="263" x2="3036" y1="696" y2="696"/>
  <line id="Capline-S" style="fill:none;stroke:#27AAE1;opacity:1;stroke-width:0.5;" x1="263" x2="3036" y1="625.541" y2="625.541"/>
  <g id="H-reference" style="fill:#27AAE1;stroke:none;" transform="matrix(1 0 0 1 339 1126)">
   <path d="M0.976562 0L3.66211 0L12.9883-24.4629L45.752-24.4629L55.127 0L57.7637 0L30.6152-70.459L28.125-70.459ZM29.3457-67.1387L29.4434-67.1387L44.873-26.709L13.8672-26.709Z"/>
  </g>
  <line id="Baseline-M" style="fill:none;stroke:#27AAE1;opacity:1;stroke-width:0.5;" x1="263" x2="3036" y1="1126" y2="1126"/>
  <line id="Capline-M" style="fill:none;stroke:#27AAE1;opacity:1;stroke-width:0.5;" x1="263" x2="3036" y1="1055.54" y2="1055.54"/>
  <g id="H-reference" style="fill:#27AAE1;stroke:none;" transform="matrix(1 0 0 1 339 1556)">
   <path d="M0.976562 0L3.66211 0L12.9883-24.4629L45.752-24.4629L55.127 0L57.7637 0L30.6152-70.459L28.125-70.459ZM29.3457-67.1387L29.4434-67.1387L44.873-26.709L13.8672-26.709Z"/>
  </g>
  <line id="Baseline-L" style="fill:none;stroke:#27AAE1;opacity:1;stroke-width:0.5;" x1="263" x2="3036" y1="1556" y2="1556"/>
  <line id="Capline-L" style="fill:none;stroke:#27AAE1;opacity:1;stroke-width:0.5;" x1="263" x2="3036" y1="1485.54" y2="1485.54"/>
  <line id="left-margin" x1="1415.9000195312499" x2="1415.9000195312499" y1="1030.79" y2="1150.12" style="fill:none;stroke:#00AEEF;stroke-width:0.5;opacity:1.0;"/>
  <line id="right-margin" x1="1486.3599804687499" x2="1486.3599804687499" y1="1030.79" y2="1150.12" style="fill:none;stroke:#00AEEF;stroke-width:0.5;opacity:1.0;"/>
 </g>
 <g id="Symbols">
  <g id="Black-L" transform="matrix(1.0,0.0,0.0,1.0,2889.2333251953123,1475.3233447265625)">  <path stroke-linejoin="miter" fill-opacity="1" fill-rule="nonzero" stroke-dasharray="none" stroke-width="0px" stroke="none" stroke-linecap="butt" stroke-opacity="1" stroke-miterlimit="4" fill="#ffc107" data-name="Layer 1" d="M90.007,36.539L86.349,36.539L86.349,36.357L45.447,36.357L45.447,54.536L71.124,54.536C67.375,65.125,57.308,72.715,45.447,72.715C30.381,72.715,18.179,60.512,18.179,45.447C18.179,30.381,30.381,18.179,45.447,18.179C52.4,18.179,58.717,20.792,63.534,25.087L76.396,12.225C68.284,4.658,57.422,0,45.447,0C20.337,0,0,20.337,0,45.447C0,70.556,20.337,90.893,45.447,90.893C70.556,90.893,90.893,70.533,90.893,45.447C90.893,42.402,90.575,39.425,90.007,36.539ZM90.007,36.539"/>
  <path stroke-linecap="butt" stroke-opacity="1" stroke-miterlimit="4" fill="#ff3d00" data-name="Layer 1" stroke-linejoin="miter" stroke-dasharray="none" stroke-width="0px" stroke="none" fill-rule="nonzero" fill-opacity="1" d="M5.249,24.291L20.178,35.244C24.223,25.246,33.994,18.179,45.447,18.179C52.4,18.179,58.717,20.792,63.534,25.087L76.396,12.225C68.284,4.658,57.422,0,45.447,0C27.995,0,12.861,9.862,5.249,24.291ZM5.249,24.291"/>
  <path stroke-linejoin="miter" stroke-miterlimit="4" data-name="Layer 1" stroke-opacity="1" fill-rule="nonzero" stroke-dasharray="none" fill="#4caf50" stroke-linecap="butt" stroke="none" fill-opacity="1" stroke-width="0px" d="M45.447,90.893C57.195,90.893,67.852,86.394,75.919,79.1L61.853,67.193C57.286,70.647,51.627,72.715,45.447,72.715C33.631,72.715,23.587,65.171,19.815,54.65L4.999,66.079C12.521,80.804,27.791,90.893,45.447,90.893ZM45.447,90.893"/>
  <path fill="#1976d2" fill-rule="nonzero" stroke-linecap="butt" fill-opacity="1" stroke="none" stroke-width="0px" data-name="Layer 1" stroke-dasharray="none" stroke-opacity="1" stroke-linejoin="miter" stroke-miterlimit="4" d="M90.007,36.539L86.349,36.539L86.349,36.357L45.447,36.357L45.447,54.536L71.124,54.536C69.329,59.626,66.057,64.012,61.83,67.193C61.83,67.193,61.83,67.193,61.83,67.193L75.896,79.1C74.896,80.009,90.871,68.17,90.871,45.447C90.871,42.402,90.553,39.425,89.984,36.539ZM90.007,36.539"/>
</g>
  <g id="Heavy-L" transform="matrix(1.0,0.0,0.0,1.0,2592.5233251953123,1475.3233447265625)">  <path fill="#ffc107" data-name="Layer 1" stroke-miterlimit="4" stroke-linejoin="miter" stroke-linecap="butt" stroke="none" fill-opacity="1" fill-rule="nonzero" stroke-opacity="1" stroke-dasharray="none" stroke-width="0px" d="M90.007,36.539L86.349,36.539L86.349,36.357L45.447,36.357L45.447,54.536L71.124,54.536C67.375,65.125,57.308,72.715,45.447,72.715C30.381,72.715,18.179,60.512,18.179,45.447C18.179,30.381,30.381,18.179,45.447,18.179C52.4,18.179,58.717,20.792,63.534,25.087L76.396,12.225C68.284,4.658,57.422,0,45.447,0C20.337,0,0,20.337,0,45.447C0,70.556,20.337,90.893,45.447,90.893C70.556,90.893,90.893,70.533,90.893,45.447C90.893,42.402,90.575,39.425,90.007,36.539ZM90.007,36.539"/>
  <path fill-rule="nonzero" stroke="none" data-name="Layer 1" stroke-opacity="1" stroke-miterlimit="4" fill="#ff3d00" stroke-width="0px" stroke-linejoin="miter" stroke-dasharray="none" stroke-linecap="butt" fill-opacity="1" d="M5.249,24.291L20.178,35.244C24.223,25.246,33.994,18.179,45.447,18.179C52.4,18.179,58.717,20.792,63.534,25.087L76.396,12.225C68.284,4.658,57.422,0,45.447,0C27.995,0,12.861,9.862,5.249,24.291ZM5.249,24.291"/>
  <path stroke="none" stroke-dasharray="none" fill-rule="nonzero" stroke-linecap="butt" stroke-opacity="1" fill="#4caf50" data-name="Layer 1" fill-opacity="1" stroke-width="0px" stroke-miterlimit="4" stroke-linejoin="miter" d="M45.447,90.893C57.195,90.893,67.852,86.394,75.919,79.1L61.853,67.193C57.286,70.647,51.627,72.715,45.447,72.715C33.631,72.715,23.587,65.171,19.815,54.65L4.999,66.079C12.521,80.804,27.791,90.893,45.447,90.893ZM45.447,90.893"/>
  <path stroke-dasharray="none" stroke="none" stroke-linecap="butt" fill="#1976d2" fill-rule="nonzero" stroke-miterlimit="4" stroke-opacity="1" data-name="Layer 1" fill-opacity="1" stroke-linejoin="miter" stroke-width="0px" d="M90.007,36.539L86.349,36.539L86.349,36.357L45.447,36.357L45.447,54.536L71.124,54.536C69.329,59.626,66.057,64.012,61.83,67.193C61.83,67.193,61.83,67.193,61.83,67.193L75.896,79.1C74.896,80.009,90.871,68.17,90.871,45.447C90.871,42.402,90.553,39.425,89.984,36.539ZM90.007,36.539"/>
</g>
  <g id="Bold-L" transform="matrix(1.0,0.0,0.0,1.0,2295.8133251953122,1475.3233447265625)">  <path fill="#ffc107" fill-rule="nonzero" data-name="Layer 1" stroke-miterlimit="4" stroke-dasharray="none" stroke-linecap="butt" stroke-linejoin="miter" stroke="none" stroke-width="0px" fill-opacity="1" stroke-opacity="1" d="M90.007,36.539L86.349,36.539L86.349,36.357L45.447,36.357L45.447,54.536L71.124,54.536C67.375,65.125,57.308,72.715,45.447,72.715C30.381,72.715,18.179,60.512,18.179,45.447C18.179,30.381,30.381,18.179,45.447,18.179C52.4,18.179,58.717,20.792,63.534,25.087L76.396,12.225C68.284,4.658,57.422,0,45.447,0C20.337,0,0,20.337,0,45.447C0,70.556,20.337,90.893,45.447,90.893C70.556,90.893,90.893,70.533,90.893,45.447C90.893,42.402,90.575,39.425,90.007,36.539ZM90.007,36.539"/>
  <path stroke-miterlimit="4" stroke-dasharray="none" stroke="none" stroke-linejoin="miter" fill-rule="nonzero" stroke-width="0px" fill="#ff3d00" stroke-linecap="butt" stroke-opacity="1" data-name="Layer 1" fill-opacity="1" d="M5.249,24.291L20.178,35.244C24.223,25.246,33.994,18.179,45.447,18.179C52.4,18.179,58.717,20.792,63.534,25.087L76.396,12.225C68.284,4.658,57.422,0,45.447,0C27.995,0,12.861,9.862,5.249,24.291ZM5.249,24.291"/>
  <path stroke="none" stroke-opacity="1" stroke-linejoin="miter" fill-rule="nonzero" fill="#4caf50" stroke-dasharray="none" stroke-linecap="butt" data-name="Layer 1" stroke-width="0px" stroke-miterlimit="4" fill-opacity="1" d="M45.447,90.893C57.195,90.893,67.852,86.394,75.919,79.1L61.853,67.193C57.286,70.647,51.627,72.715,45.447,72.715C33.631,72.715,23.587,65.171,19.815,54.65L4.999,66.079C12.521,80.804,27.791,90.893,45.447,90.893ZM45.447,90.893"/>
  <path stroke-miterlimit="4" fill-rule="nonzero" stroke-width="0px" fill-opacity="1" data-name="Layer 1" stroke-dasharray="none" stroke-linecap="butt" stroke-linejoin="miter" stroke="none" stroke-opacity="1" fill="#1976d2" d="M90.007,36.539L86.349,36.539L86.349,36.357L45.447,36.357L45.447,54.536L71.124,54.536C69.329,59.626,66.057,64.012,61.83,67.193C61.83,67.193,61.83,67.193,61.83,67.193L75.896,79.1C74.896,80.009,90.871,68.17,90.871,45.447C90.871,42.402,90.553,39.425,89.984,36.539ZM90.007,36.539"/>
</g>
  <g id="Semibold-L" transform="matrix(1.0,0.0,0.0,1.0,1999.1033251953124,1475.3233447265625)">  <path data-name="Layer 1" stroke-opacity="1" stroke-linecap="butt" stroke-miterlimit="4" stroke="none" fill="#ffc107" fill-opacity="1" stroke-linejoin="miter" stroke-width="0px" stroke-dasharray="none" fill-rule="nonzero" d="M90.007,36.539L86.349,36.539L86.349,36.357L45.447,36.357L45.447,54.536L71.124,54.536C67.375,65.125,57.308,72.715,45.447,72.715C30.381,72.715,18.179,60.512,18.179,45.447C18.179,30.381,30.381,18.179,45.447,18.179C52.4,18.179,58.717,20.792,63.534,25.087L76.396,12.225C68.284,4.658,57.422,0,45.447,0C20.337,0,0,20.337,0,45.447C0,70.556,20.337,90.893,45.447,90.893C70.556,90.893,90.893,70.533,90.893,45.447C90.893,42.402,90.575,39.425,90.007,36.539ZM90.007,36.539"/>
  <path stroke="none" data-name="Layer 1" stroke-dasharray="none" fill-rule="nonzero" fill="#ff3d00" fill-opacity="1" stroke-linecap="butt" stroke-opacity="1" stroke-width="0px" stroke-linejoin="miter" stroke-miterlimit="4" d="M5.249,24.291L20.178,35.244C24.223,25.246,33.994,18.179,45.447,18.179C52.4,18.179,58.717,20.792,63.534,25.087L76.396,12.225C68.284,4.658,57.422,0,45.447,0C27.995,0,12.861,9.862,5.249,24.291ZM5.249,24.291"/>
  <path stroke-dasharray="none" stroke-opacity="1" stroke-linecap="butt" fill-opacity="1" stroke-width="0px" stroke-miterlimit="4" stroke="none" stroke-linejoin="miter" fill-rule="nonzero" data-name="Layer 1" fill="#4caf50" d="M45.447,90.893C57.195,90.893,67.852,86.394,75.919,79.1L61.853,67.193C57.286,70.647,51.627,72.715,45.447,72.715C33.631,72.715,23.587,65.171,19.815,54.65L4.999,66.079C12.521,80.804,27.791,90.893,45.447,90.893ZM45.447,90.893"/>
  <path stroke-miterlimit="4" stroke="none" fill-opacity="1" fill-rule="nonzero" stroke-linecap="butt" stroke-opacity="1" stroke-linejoin="miter" stroke-dasharray="none" stroke-width="0px" data-name="Layer 1" fill="#1976d2" d="M90.007,36.539L86.349,36.539L86.349,36.357L45.447,36.357L45.447,54.536L71.124,54.536C69.329,59.626,66.057,64.012,61.83,67.193C61.83,67.193,61.83,67.193,61.83,67.193L75.896,79.1C74.896,80.009,90.871,68.17,90.871,45.447C90.871,42.402,90.553,39.425,89.984,36.539ZM90.007,36.539"/>
</g>
  <g id="Medium-L" transform="matrix(1.0,0.0,0.0,1.0,1702.3933251953124,1475.3233447265625)">  <path stroke-opacity="1" fill-rule="nonzero" fill="#ffc107" stroke-linecap="butt" stroke-width="0px" stroke-miterlimit="4" stroke-linejoin="miter" data-name="Layer 1" stroke="none" fill-opacity="1" stroke-dasharray="none" d="M90.007,36.539L86.349,36.539L86.349,36.357L45.447,36.357L45.447,54.536L71.124,54.536C67.375,65.125,57.308,72.715,45.447,72.715C30.381,72.715,18.179,60.512,18.179,45.447C18.179,30.381,30.381,18.179,45.447,18.179C52.4,18.179,58.717,20.792,63.534,25.087L76.396,12.225C68.284,4.658,57.422,0,45.447,0C20.337,0,0,20.337,0,45.447C0,70.556,20.337,90.893,45.447,90.893C70.556,90.893,90.893,70.533,90.893,45.447C90.893,42.402,90.575,39.425,90.007,36.539ZM90.007,36.539"/>
  <path stroke-dasharray="none" stroke-opacity="1" stroke-linejoin="miter" fill-rule="nonzero" stroke-width="0px" stroke-linecap="butt" stroke="none" fill="#ff3d00" data-name="Layer 1" stroke-miterlimit="4" fill-opacity="1" d="M5.249,24.291L20.178,35.244C24.223,25.246,33.994,18.179,45.447,18.179C52.4,18.179,58.717,20.792,63.534,25.087L76.396,12.225C68.284,4.658,57.422,0,45.447,0C27.995,0,12.861,9.862,5.249,24.291ZM5.249,24.291"/>
  <path fill-opacity="1" stroke-linecap="butt" fill="#4caf50" stroke-linejoin="miter" stroke-opacity="1" fill-rule="nonzero" stroke-miterlimit="4" stroke-dasharray="none" stroke-width="0px" data-name="Layer 1" stroke="none" d="M45.447,90.893C57.195,90.893,67.852,86.394,75.919,79.1L61.853,67.193C57.286,70.647,51.627,72.715,45.447,72.715C33.631,72.715,23.587,65.171,19.815,54.65L4.999,66.079C12.521,80.804,27.791,90.893,45.447,90.893ZM45.447,90.893"/>
  <path stroke-opacity="1" stroke-width="0px" stroke="none" stroke-linecap="butt" fill-rule="nonzero" fill-opacity="1" data-name="Layer 1" stroke-linejoin="miter" stroke-dasharray="none" stroke-miterlimit="4" fill="#1976d2" d="M90.007,36.539L86.349,36.539L86.349,36.357L45.447,36.357L45.447,54.536L71.124,54.536C69.329,59.626,66.057,64.012,61.83,67.193C61.83,67.193,61.83,67.193,61.83,67.193L75.896,79.1C74.896,80.009,90.871,68.17,90.871,45.447C90.871,42.402,90.553,39.425,89.984,36.539ZM90.007,36.539"/>
</g>
  <g id="Regular-L" transform="matrix(1.0,0.0,0.0,1.0,1405.6833251953124,1475.3233447265625)">  <path fill="#ffc107" stroke-miterlimit="4" fill-rule="nonzero" stroke-dasharray="none" stroke-opacity="1" stroke="none" data-name="Layer 1" stroke-width="0px" stroke-linecap="butt" stroke-linejoin="miter" fill-opacity="1" d="M90.007,36.539L86.349,36.539L86.349,36.357L45.447,36.357L45.447,54.536L71.124,54.536C67.375,65.125,57.308,72.715,45.447,72.715C30.381,72.715,18.179,60.512,18.179,45.447C18.179,30.381,30.381,18.179,45.447,18.179C52.4,18.179,58.717,20.792,63.534,25.087L76.396,12.225C68.284,4.658,57.422,0,45.447,0C20.337,0,0,20.337,0,45.447C0,70.556,20.337,90.893,45.447,90.893C70.556,90.893,90.893,70.533,90.893,45.447C90.893,42.402,90.575,39.425,90.007,36.539ZM90.007,36.539"/>
  <path stroke-width="0px" stroke="none" fill-opacity="1" stroke-linecap="butt" stroke-miterlimit="4" fill="#ff3d00" stroke-dasharray="none" data-name="Layer 1" stroke-opacity="1" stroke-linejoin="miter" fill-rule="nonzero" d="M5.249,24.291L20.178,35.244C24.223,25.246,33.994,18.179,45.447,18.179C52.4,18.179,58.717,20.792,63.534,25.087L76.396,12.225C68.284,4.658,57.422,0,45.447,0C27.995,0,12.861,9.862,5.249,24.291ZM5.249,24.291"/>
  <path stroke-dasharray="none" data-name="Layer 1" fill-rule="nonzero" stroke-width="0px" stroke-linejoin="miter" stroke-opacity="1" fill="#4caf50" stroke-linecap="butt" fill-opacity="1" stroke-miterlimit="4" stroke="none" d="M45.447,90.893C57.195,90.893,67.852,86.394,75.919,79.1L61.853,67.193C57.286,70.647,51.627,72.715,45.447,72.715C33.631,72.715,23.587,65.171,19.815,54.65L4.999,66.079C12.521,80.804,27.791,90.893,45.447,90.893ZM45.447,90.893"/>
  <path stroke-width="0px" data-name="Layer 1" stroke-opacity="1" stroke-linecap="butt" stroke="none" fill-opacity="1" stroke-miterlimit="4" stroke-linejoin="miter" fill="#1976d2" stroke-dasharray="none" fill-rule="nonzero" d="M90.007,36.539L86.349,36.539L86.349,36.357L45.447,36.357L45.447,54.536L71.124,54.536C69.329,59.626,66.057,64.012,61.83,67.193C61.83,67.193,61.83,67.193,61.83,67.193L75.896,79.1C74.896,80.009,90.871,68.17,90.871,45.447C90.871,42.402,90.553,39.425,89.984,36.539ZM90.007,36.539"/>
</g>
  <g id="Light-L" transform="matrix(1.0,0.0,0.0,1.0,1108.9733251953126,1475.3233447265625)">  <path data-name="Layer 1" stroke-linecap="butt" stroke-opacity="1" stroke-linejoin="miter" fill="#ffc107" stroke="none" stroke-miterlimit="4" fill-opacity="1" stroke-width="0px" fill-rule="nonzero" stroke-dasharray="none" d="M90.007,36.539L86.349,36.539L86.349,36.357L45.447,36.357L45.447,54.536L71.124,54.536C67.375,65.125,57.308,72.715,45.447,72.715C30.381,72.715,18.179,60.512,18.179,45.447C18.179,30.381,30.381,18.179,45.447,18.179C52.4,18.179,58.717,20.792,63.534,25.087L76.396,12.225C68.284,4.658,57.422,0,45.447,0C20.337,0,0,20.337,0,45.447C0,70.556,20.337,90.893,45.447,90.893C70.556,90.893,90.893,70.533,90.893,45.447C90.893,42.402,90.575,39.425,90.007,36.539ZM90.007,36.539"/>
  <path stroke-linecap="butt" stroke-width="0px" stroke-miterlimit="4" stroke-linejoin="miter" fill-opacity="1" data-name="Layer 1" fill-rule="nonzero" stroke-dasharray="none" fill="#ff3d00" stroke-opacity="1" stroke="none" d="M5.249,24.291L20.178,35.244C24.223,25.246,33.994,18.179,45.447,18.179C52.4,18.179,58.717,20.792,63.534,25.087L76.396,12.225C68.284,4.658,57.422,0,45.447,0C27.995,0,12.861,9.862,5.249,24.291ZM5.249,24.291"/>
  <path stroke-miterlimit="4" stroke-opacity="1" fill-opacity="1" stroke-linecap="butt" fill="#4caf50" stroke-linejoin="miter" data-name="Layer 1" stroke-width="0px" fill-rule="nonzero" stroke-dasharray="none" stroke="none" d="M45.447,90.893C57.195,90.893,67.852,86.394,75.919,79.1L61.853,67.193C57.286,70.647,51.627,72.715,45.447,72.715C33.631,72.715,23.587,65.171,19.815,54.65L4.999,66.079C12.521,80.804,27.791,90.893,45.447,90.893ZM45.447,90.893"/>
  <path stroke="none" stroke-dasharray="none" stroke-opacity="1" stroke-miterlimit="4" fill-rule="nonzero" fill="#1976d2" stroke-linecap="butt" fill-opacity="1" data-name="Layer 1" stroke-linejoin="miter" stroke-width="0px" d="M90.007,36.539L86.349,36.539L86.349,36.357L45.447,36.357L45.447,54.536L71.124,54.536C69.329,59.626,66.057,64.012,61.83,67.193C61.83,67.193,61.83,67.193,61.83,67.193L75.896,79.1C74.896,80.009,90.871,68.17,90.871,45.447C90.871,42.402,90.553,39.425,89.984,36.539ZM90.007,36.539"/>
</g>
  <g id="Thin-L" transform="matrix(1.0,0.0,0.0,1.0,812.2633251953125,1475.3233447265625)">  <path stroke-miterlimit="4" fill-rule="nonzero" stroke="none" fill="#ffc107" stroke-width="0px" stroke-linecap="butt" stroke-dasharray="none" fill-opacity="1" stroke-opacity="1" data-name="Layer 1" stroke-linejoin="miter" d="M90.007,36.539L86.349,36.539L86.349,36.357L45.447,36.357L45.447,54.536L71.124,54.536C67.375,65.125,57.308,72.715,45.447,72.715C30.381,72.715,18.179,60.512,18.179,45.447C18.179,30.381,30.381,18.179,45.447,18.179C52.4,18.179,58.717,20.792,63.534,25.087L76.396,12.225C68.284,4.658,57.422,0,45.447,0C20.337,0,0,20.337,0,45.447C0,70.556,20.337,90.893,45.447,90.893C70.556,90.893,90.893,70.533,90.893,45.447C90.893,42.402,90.575,39.425,90.007,36.539ZM90.007,36.539"/>
  <path fill-opacity="1" stroke="none" stroke-miterlimit="4" stroke-linejoin="miter" fill="#ff3d00" stroke-width="0px" data-name="Layer 1" stroke-linecap="butt" stroke-dasharray="none" stroke-opacity="1" fill-rule="nonzero" d="M5.249,24.291L20.178,35.244C24.223,25.246,33.994,18.179,45.447,18.179C52.4,18.179,58.717,20.792,63.534,25.087L76.396,12.225C68.284,4.658,57.422,0,45.447,0C27.995,0,12.861,9.862,5.249,24.291ZM5.249,24.291"/>
  <path stroke-opacity="1" stroke-width="0px" fill-rule="nonzero" data-name="Layer 1" stroke-dasharray="none" fill="#4caf50" fill-opacity="1" stroke-miterlimit="4" stroke="none" stroke-linecap="butt" stroke-linejoin="miter" d="M45.447,90.893C57.195,90.893,67.852,86.394,75.919,79.1L61.853,67.193C57.286,70.647,51.627,72.715,45.447,72.715C33.631,72.715,23.587,65.171,19.815,54.65L4.999,66.079C12.521,80.804,27.791,90.893,45.447,90.893ZM45.447,90.893"/>
  <path stroke-opacity="1" fill-opacity="1" fill="#1976d2" stroke-linecap="butt" stroke-width="0px" stroke-dasharray="none" stroke-miterlimit="4" fill-rule="nonzero" data-name="Layer 1" stroke-linejoin="miter" stroke="none" d="M90.007,36.539L86.349,36.539L86.349,36.357L45.447,36.357L45.447,54.536L71.124,54.536C69.329,59.626,66.057,64.012,61.83,67.193C61.83,67.193,61.83,67.193,61.83,67.193L75.896,79.1C74.896,80.009,90.871,68.17,90.871,45.447C90.871,42.402,90.553,39.425,89.984,36.539ZM90.007,36.539"/>
</g>
  <g id="Ultralight-L" transform="matrix(1.0,0.0,0.0,1.0,515.5533251953125,1475.3233447265625)">  <path stroke-opacity="1" data-name="Layer 1" fill-rule="nonzero" stroke-miterlimit="4" fill-opacity="1" stroke-width="0px" stroke-linejoin="miter" stroke-dasharray="none" stroke-linecap="butt" stroke="none" fill="#ffc107" d="M90.007,36.539L86.349,36.539L86.349,36.357L45.447,36.357L45.447,54.536L71.124,54.536C67.375,65.125,57.308,72.715,45.447,72.715C30.381,72.715,18.179,60.512,18.179,45.447C18.179,30.381,30.381,18.179,45.447,18.179C52.4,18.179,58.717,20.792,63.534,25.087L76.396,12.225C68.284,4.658,57.422,0,45.447,0C20.337,0,0,20.337,0,45.447C0,70.556,20.337,90.893,45.447,90.893C70.556,90.893,90.893,70.533,90.893,45.447C90.893,42.402,90.575,39.425,90.007,36.539ZM90.007,36.539"/>
  <path stroke-dasharray="none" data-name="Layer 1" stroke-miterlimit="4" stroke-linejoin="miter" fill-opacity="1" stroke-linecap="butt" stroke-opacity="1" stroke-width="0px" fill-rule="nonzero" stroke="none" fill="#ff3d00" d="M5.249,24.291L20.178,35.244C24.223,25.246,33.994,18.179,45.447,18.179C52.4,18.179,58.717,20.792,63.534,25.087L76.396,12.225C68.284,4.658,57.422,0,45.447,0C27.995,0,12.861,9.862,5.249,24.291ZM5.249,24.291"/>
  <path data-name="Layer 1" fill="#4caf50" stroke-opacity="1" stroke-miterlimit="4" fill-opacity="1" stroke-linecap="butt" stroke-linejoin="miter" stroke-dasharray="none" fill-rule="nonzero" stroke="none" stroke-width="0px" d="M45.447,90.893C57.195,90.893,67.852,86.394,75.919,79.1L61.853,67.193C57.286,70.647,51.627,72.715,45.447,72.715C33.631,72.715,23.587,65.171,19.815,54.65L4.999,66.079C12.521,80.804,27.791,90.893,45.447,90.893ZM45.447,90.893"/>
  <path stroke-dasharray="none" data-name="Layer 1" stroke-linecap="butt" fill="#1976d2" stroke="none" fill-rule="nonzero" stroke-linejoin="miter" fill-opacity="1" stroke-width="0px" stroke-opacity="1" stroke-miterlimit="4" d="M90.007,36.539L86.349,36.539L86.349,36.357L45.447,36.357L45.447,54.536L71.124,54.536C69.329,59.626,66.057,64.012,61.83,67.193C61.83,67.193,61.83,67.193,61.83,67.193L75.896,79.1C74.896,80.009,90.871,68.17,90.871,45.447C90.871,42.402,90.553,39.425,89.984,36.539ZM90.007,36.539"/>
</g>
  <g id="Black-M" transform="matrix(1.0,0.0,0.0,1.0,2899.45001953125,1055.5400390625)">  <path stroke-linejoin="miter" fill-opacity="1" fill-rule="nonzero" stroke-dasharray="none" stroke-width="0px" stroke="none" stroke-linecap="butt" stroke-opacity="1" stroke-miterlimit="4" fill="#ffc107" data-name="Layer 1" d="M69.773,28.325L66.937,28.325L66.937,28.184L35.23,28.184L35.23,42.276L55.135,42.276C52.228,50.485,44.425,56.368,35.23,56.368C23.551,56.368,14.092,46.909,14.092,35.23C14.092,23.551,23.551,14.092,35.23,14.092C40.62,14.092,45.517,16.118,49.252,19.447L59.222,9.477C52.933,3.611,44.513,0,35.23,0C15.765,0,0,15.765,0,35.23C0,54.695,15.765,70.46,35.23,70.46C54.695,70.46,70.46,54.677,70.46,35.23C70.46,32.87,70.213,30.562,69.773,28.325ZM69.773,28.325"/>
  <path stroke-linecap="butt" stroke-opacity="1" stroke-miterlimit="4" fill="#ff3d00" data-name="Layer 1" stroke-linejoin="miter" stroke-dasharray="none" stroke-width="0px" stroke="none" fill-rule="nonzero" fill-opacity="1" d="M4.069,18.83L15.642,27.321C18.778,19.57,26.352,14.092,35.23,14.092C40.62,14.092,45.517,16.118,49.252,19.447L59.222,9.477C52.933,3.611,44.513,0,35.23,0C21.702,0,9.97,7.645,4.069,18.83ZM4.069,18.83"/>
  <path stroke-linejoin="miter" stroke-miterlimit="4" data-name="Layer 1" stroke-opacity="1" fill-rule="nonzero" stroke-dasharray="none" fill="#4caf50" stroke-linecap="butt" stroke="none" fill-opacity="1" stroke-width="0px" d="M35.23,70.46C44.337,70.46,52.598,66.972,58.852,61.318L47.948,52.088C44.407,54.765,40.021,56.368,35.23,56.368C26.07,56.368,18.284,50.52,15.36,42.364L3.875,51.224C9.706,62.639,21.543,70.46,35.23,70.46ZM35.23,70.46"/>
  <path fill="#1976d2" fill-rule="nonzero" stroke-linecap="butt" fill-opacity="1" stroke="none" stroke-width="0px" data-name="Layer 1" stroke-dasharray="none" stroke-opacity="1" stroke-linejoin="miter" stroke-miterlimit="4" d="M69.773,28.325L66.937,28.325L66.937,28.184L35.23,28.184L35.23,42.276L55.135,42.276C53.743,46.222,51.207,49.621,47.93,52.088C47.93,52.088,47.93,52.088,47.93,52.088L58.834,61.318C58.059,62.022,70.442,52.845,70.442,35.23C70.442,32.87,70.196,30.562,69.755,28.325ZM69.773,28.325"/>
</g>
  <g id="Heavy-M" transform="matrix(1.0,0.0,0.0,1.0,2602.74001953125,1055.5400390625)">  <path fill="#ffc107" data-name="Layer 1" stroke-miterlimit="4" stroke-linejoin="miter" stroke-linecap="butt" stroke="none" fill-opacity="1" fill-rule="nonzero" stroke-opacity="1" stroke-dasharray="none" stroke-width="0px" d="M69.773,28.325L66.937,28.325L66.937,28.184L35.23,28.184L35.23,42.276L55.135,42.276C52.228,50.485,44.425,56.368,35.23,56.368C23.551,56.368,14.092,46.909,14.092,35.23C14.092,23.551,23.551,14.092,35.23,14.092C40.62,14.092,45.517,16.118,49.252,19.447L59.222,9.477C52.933,3.611,44.513,0,35.23,0C15.765,0,0,15.765,0,35.23C0,54.695,15.765,70.46,35.23,70.46C54.695,70.46,70.46,54.677,70.46,35.23C70.46,32.87,70.213,30.562,69.773,28.325ZM69.773,28.325"/>
  <path fill-rule="nonzero" stroke="none" data-name="Layer 1" stroke-opacity="1" stroke-miterlimit="4" fill="#ff3d00" stroke-width="0px" stroke-linejoin="miter" stroke-dasharray="none" stroke-linecap="butt" fill-opacity="1" d="M4.069,18.83L15.642,27.321C18.778,19.57,26.352,14.092,35.23,14.092C40.62,14.092,45.517,16.118,49.252,19.447L59.222,9.477C52.933,3.611,44.513,0,35.23,0C21.702,0,9.97,7.645,4.069,18.83ZM4.069,18.83"/>
  <path stroke="none" stroke-dasharray="none" fill-rule="nonzero" stroke-linecap="butt" stroke-opacity="1" fill="#4caf50" data-name="Layer 1" fill-opacity="1" stroke-width="0px" stroke-miterlimit="4" stroke-linejoin="miter" d="M35.23,70.46C44.337,70.46,52.598,66.972,58.852,61.318L47.948,52.088C44.407,54.765,40.021,56.368,35.23,56.368C26.07,56.368,18.284,50.52,15.36,42.364L3.875,51.224C9.706,62.639,21.543,70.46,35.23,70.46ZM35.23,70.46"/>
  <path stroke-dasharray="none" stroke="none" stroke-linecap="butt" fill="#1976d2" fill-rule="nonzero" stroke-miterlimit="4" stroke-opacity="1" data-name="Layer 1" fill-opacity="1" stroke-linejoin="miter" stroke-width="0px" d="M69.773,28.325L66.937,28.325L66.937,28.184L35.23,28.184L35.23,42.276L55.135,42.276C53.743,46.222,51.207,49.621,47.93,52.088C47.93,52.088,47.93,52.088,47.93,52.088L58.834,61.318C58.059,62.022,70.442,52.845,70.442,35.23C70.442,32.87,70.196,30.562,69.755,28.325ZM69.773,28.325"/>
</g>
  <g id="Bold-M" transform="matrix(1.0,0.0,0.0,1.0,2306.0300195312498,1055.5400390625)">  <path fill="#ffc107" fill-rule="nonzero" data-name="Layer 1" stroke-miterlimit="4" stroke-dasharray="none" stroke-linecap="butt" stroke-linejoin="miter" stroke="none" stroke-width="0px" fill-opacity="1" stroke-opacity="1" d="M69.773,28.325L66.937,28.325L66.937,28.184L35.23,28.184L35.23,42.276L55.135,42.276C52.228,50.485,44.425,56.368,35.23,56.368C23.551,56.368,14.092,46.909,14.092,35.23C14.092,23.551,23.551,14.092,35.23,14.092C40.62,14.092,45.517,16.118,49.252,19.447L59.222,9.477C52.933,3.611,44.513,0,35.23,0C15.765,0,0,15.765,0,35.23C0,54.695,15.765,70.46,35.23,70.46C54.695,70.46,70.46,54.677,70.46,35.23C70.46,32.87,70.213,30.562,69.773,28.325ZM69.773,28.325"/>
  <path stroke-miterlimit="4" stroke-dasharray="none" stroke="none" stroke-linejoin="miter" fill-rule="nonzero" stroke-width="0px" fill="#ff3d00" stroke-linecap="butt" stroke-opacity="1" data-name="Layer 1" fill-opacity="1" d="M4.069,18.83L15.642,27.321C18.778,19.57,26.352,14.092,35.23,14.092C40.62,14.092,45.517,16.118,49.252,19.447L59.222,9.477C52.933,3.611,44.513,0,35.23,0C21.702,0,9.97,7.645,4.069,18.83ZM4.069,18.83"/>
  <path stroke="none" stroke-opacity="1" stroke-linejoin="miter" fill-rule="nonzero" fill="#4caf50" stroke-dasharray="none" stroke-linecap="butt" data-name="Layer 1" stroke-width="0px" stroke-miterlimit="4" fill-opacity="1" d="M35.23,70.46C44.337,70.46,52.598,66.972,58.852,61.318L47.948,52.088C44.407,54.765,40.021,56.368,35.23,56.368C26.07,56.368,18.284,50.52,15.36,42.364L3.875,51.224C9.706,62.639,21.543,70.46,35.23,70.46ZM35.23,70.46"/>
  <path stroke-miterlimit="4" fill-rule="nonzero" stroke-width="0px" fill-opacity="1" data-name="Layer 1" stroke-dasharray="none" stroke-linecap="butt" stroke-linejoin="miter" stroke="none" stroke-opacity="1" fill="#1976d2" d="M69.773,28.325L66.937,28.325L66.937,28.184L35.23,28.184L35.23,42.276L55.135,42.276C53.743,46.222,51.207,49.621,47.93,52.088C47.93,52.088,47.93,52.088,47.93,52.088L58.834,61.318C58.059,62.022,70.442,52.845,70.442,35.23C70.442,32.87,70.196,30.562,69.755,28.325ZM69.773,28.325"/>
</g>
  <g id="Semibold-M" transform="matrix(1.0,0.0,0.0,1.0,2009.32001953125,1055.5400390625)">  <path data-name="Layer 1" stroke-opacity="1" stroke-linecap="butt" stroke-miterlimit="4" stroke="none" fill="#ffc107" fill-opacity="1" stroke-linejoin="miter" stroke-width="0px" stroke-dasharray="none" fill-rule="nonzero" d="M69.773,28.325L66.937,28.325L66.937,28.184L35.23,28.184L35.23,42.276L55.135,42.276C52.228,50.485,44.425,56.368,35.23,56.368C23.551,56.368,14.092,46.909,14.092,35.23C14.092,23.551,23.551,14.092,35.23,14.092C40.62,14.092,45.517,16.118,49.252,19.447L59.222,9.477C52.933,3.611,44.513,0,35.23,0C15.765,0,0,15.765,0,35.23C0,54.695,15.765,70.46,35.23,70.46C54.695,70.46,70.46,54.677,70.46,35.23C70.46,32.87,70.213,30.562,69.773,28.325ZM69.773,28.325"/>
  <path stroke="none" data-name="Layer 1" stroke-dasharray="none" fill-rule="nonzero" fill="#ff3d00" fill-opacity="1" stroke-linecap="butt" stroke-opacity="1" stroke-width="0px" stroke-linejoin="miter" stroke-miterlimit="4" d="M4.069,18.83L15.642,27.321C18.778,19.57,26.352,14.092,35.23,14.092C40.62,14.092,45.517,16.118,49.252,19.447L59.222,9.477C52.933,3.611,44.513,0,35.23,0C21.702,0,9.97,7.645,4.069,18.83ZM4.069,18.83"/>
  <path stroke-dasharray="none" stroke-opacity="1" stroke-linecap="butt" fill-opacity="1" stroke-width="0px" stroke-miterlimit="4" stroke="none" stroke-linejoin="miter" fill-rule="nonzero" data-name="Layer 1" fill="#4caf50" d="M35.23,70.46C44.337,70.46,52.598,66.972,58.852,61.318L47.948,52.088C44.407,54.765,40.021,56.368,35.23,56.368C26.07,56.368,18.284,50.52,15.36,42.364L3.875,51.224C9.706,62.639,21.543,70.46,35.23,70.46ZM35.23,70.46"/>
  <path stroke-miterlimit="4" stroke="none" fill-opacity="1" fill-rule="nonzero" stroke-linecap="butt" stroke-opacity="1" stroke-linejoin="miter" stroke-dasharray="none" stroke-width="0px" data-name="Layer 1" fill="#1976d2" d="M69.773,28.325L66.937,28.325L66.937,28.184L35.23,28.184L35.23,42.276L55.135,42.276C53.743,46.222,51.207,49.621,47.93,52.088C47.93,52.088,47.93,52.088,47.93,52.088L58.834,61.318C58.059,62.022,70.442,52.845,70.442,35.23C70.442,32.87,70.196,30.562,69.755,28.325ZM69.773,28.325"/>
</g>
  <g id="Medium-M" transform="matrix(1.0,0.0,0.0,1.0,1712.61001953125,1055.5400390625)">  <path stroke-opacity="1" fill-rule="nonzero" fill="#ffc107" stroke-linecap="butt" stroke-width="0px" stroke-miterlimit="4" stroke-linejoin="miter" data-name="Layer 1" stroke="none" fill-opacity="1" stroke-dasharray="none" d="M69.773,28.325L66.937,28.325L66.937,28.184L35.23,28.184L35.23,42.276L55.135,42.276C52.228,50.485,44.425,56.368,35.23,56.368C23.551,56.368,14.092,46.909,14.092,35.23C14.092,23.551,23.551,14.092,35.23,14.092C40.62,14.092,45.517,16.118,49.252,19.447L59.222,9.477C52.933,3.611,44.513,0,35.23,0C15.765,0,0,15.765,0,35.23C0,54.695,15.765,70.46,35.23,70.46C54.695,70.46,70.46,54.677,70.46,35.23C70.46,32.87,70.213,30.562,69.773,28.325ZM69.773,28.325"/>
  <path stroke-dasharray="none" stroke-opacity="1" stroke-linejoin="miter" fill-rule="nonzero" stroke-width="0px" stroke-linecap="butt" stroke="none" fill="#ff3d00" data-name="Layer 1" stroke-miterlimit="4" fill-opacity="1" d="M4.069,18.83L15.642,27.321C18.778,19.57,26.352,14.092,35.23,14.092C40.62,14.092,45.517,16.118,49.252,19.447L59.222,9.477C52.933,3.611,44.513,0,35.23,0C21.702,0,9.97,7.645,4.069,18.83ZM4.069,18.83"/>
  <path fill-opacity="1" stroke-linecap="butt" fill="#4caf50" stroke-linejoin="miter" stroke-opacity="1" fill-rule="nonzero" stroke-miterlimit="4" stroke-dasharray="none" stroke-width="0px" data-name="Layer 1" stroke="none" d="M35.23,70.46C44.337,70.46,52.598,66.972,58.852,61.318L47.948,52.088C44.407,54.765,40.021,56.368,35.23,56.368C26.07,56.368,18.284,50.52,15.36,42.364L3.875,51.224C9.706,62.639,21.543,70.46,35.23,70.46ZM35.23,70.46"/>
  <path stroke-opacity="1" stroke-width="0px" stroke="none" stroke-linecap="butt" fill-rule="nonzero" fill-opacity="1" data-name="Layer 1" stroke-linejoin="miter" stroke-dasharray="none" stroke-miterlimit="4" fill="#1976d2" d="M69.773,28.325L66.937,28.325L66.937,28.184L35.23,28.184L35.23,42.276L55.135,42.276C53.743,46.222,51.207,49.621,47.93,52.088C47.93,52.088,47.93,52.088,47.93,52.088L58.834,61.318C58.059,62.022,70.442,52.845,70.442,35.23C70.442,32.87,70.196,30.562,69.755,28.325ZM69.773,28.325"/>
</g>
  <g id="Regular-M" transform="matrix(1.0,0.0,0.0,1.0,1415.9000195312499,1055.5400390625)">  <path fill="#ffc107" stroke-miterlimit="4" fill-rule="nonzero" stroke-dasharray="none" stroke-opacity="1" stroke="none" data-name="Layer 1" stroke-width="0px" stroke-linecap="butt" stroke-linejoin="miter" fill-opacity="1" d="M69.773,28.325L66.937,28.325L66.937,28.184L35.23,28.184L35.23,42.276L55.135,42.276C52.228,50.485,44.425,56.368,35.23,56.368C23.551,56.368,14.092,46.909,14.092,35.23C14.092,23.551,23.551,14.092,35.23,14.092C40.62,14.092,45.517,16.118,49.252,19.447L59.222,9.477C52.933,3.611,44.513,0,35.23,0C15.765,0,0,15.765,0,35.23C0,54.695,15.765,70.46,35.23,70.46C54.695,70.46,70.46,54.677,70.46,35.23C70.46,32.87,70.213,30.562,69.773,28.325ZM69.773,28.325"/>
  <path stroke-width="0px" stroke="none" fill-opacity="1" stroke-linecap="butt" stroke-miterlimit="4" fill="#ff3d00" stroke-dasharray="none" data-name="Layer 1" stroke-opacity="1" stroke-linejoin="miter" fill-rule="nonzero" d="M4.069,18.83L15.642,27.321C18.778,19.57,26.352,14.092,35.23,14.092C40.62,14.092,45.517,16.118,49.252,19.447L59.222,9.477C52.933,3.611,44.513,0,35.23,0C21.702,0,9.97,7.645,4.069,18.83ZM4.069,18.83"/>
  <path stroke-dasharray="none" data-name="Layer 1" fill-rule="nonzero" stroke-width="0px" stroke-linejoin="miter" stroke-opacity="1" fill="#4caf50" stroke-linecap="butt" fill-opacity="1" stroke-miterlimit="4" stroke="none" d="M35.23,70.46C44.337,70.46,52.598,66.972,58.852,61.318L47.948,52.088C44.407,54.765,40.021,56.368,35.23,56.368C26.07,56.368,18.284,50.52,15.36,42.364L3.875,51.224C9.706,62.639,21.543,70.46,35.23,70.46ZM35.23,70.46"/>
  <path stroke-width="0px" data-name="Layer 1" stroke-opacity="1" stroke-linecap="butt" stroke="none" fill-opacity="1" stroke-miterlimit="4" stroke-linejoin="miter" fill="#1976d2" stroke-dasharray="none" fill-rule="nonzero" d="M69.773,28.325L66.937,28.325L66.937,28.184L35.23,28.184L35.23,42.276L55.135,42.276C53.743,46.222,51.207,49.621,47.93,52.088C47.93,52.088,47.93,52.088,47.93,52.088L58.834,61.318C58.059,62.022,70.442,52.845,70.442,35.23C70.442,32.87,70.196,30.562,69.755,28.325ZM69.773,28.325"/>
</g>
  <g id="Light-M" transform="matrix(1.0,0.0,0.0,1.0,1119.19001953125,1055.5400390625)">  <path data-name="Layer 1" stroke-linecap="butt" stroke-opacity="1" stroke-linejoin="miter" fill="#ffc107" stroke="none" stroke-miterlimit="4" fill-opacity="1" stroke-width="0px" fill-rule="nonzero" stroke-dasharray="none" d="M69.773,28.325L66.937,28.325L66.937,28.184L35.23,28.184L35.23,42.276L55.135,42.276C52.228,50.485,44.425,56.368,35.23,56.368C23.551,56.368,14.092,46.909,14.092,35.23C14.092,23.551,23.551,14.092,35.23,14.092C40.62,14.092,45.517,16.118,49.252,19.447L59.222,9.477C52.933,3.611,44.513,0,35.23,0C15.765,0,0,15.765,0,35.23C0,54.695,15.765,70.46,35.23,70.46C54.695,70.46,70.46,54.677,70.46,35.23C70.46,32.87,70.213,30.562,69.773,28.325ZM69.773,28.325"/>
  <path stroke-linecap="butt" stroke-width="0px" stroke-miterlimit="4" stroke-linejoin="miter" fill-opacity="1" data-name="Layer 1" fill-rule="nonzero" stroke-dasharray="none" fill="#ff3d00" stroke-opacity="1" stroke="none" d="M4.069,18.83L15.642,27.321C18.778,19.57,26.352,14.092,35.23,14.092C40.62,14.092,45.517,16.118,49.252,19.447L59.222,9.477C52.933,3.611,44.513,0,35.23,0C21.702,0,9.97,7.645,4.069,18.83ZM4.069,18.83"/>
  <path stroke-miterlimit="4" stroke-opacity="1" fill-opacity="1" stroke-linecap="butt" fill="#4caf50" stroke-linejoin="miter" data-name="Layer 1" stroke-width="0px" fill-rule="nonzero" stroke-dasharray="none" stroke="none" d="M35.23,70.46C44.337,70.46,52.598,66.972,58.852,61.318L47.948,52.088C44.407,54.765,40.021,56.368,35.23,56.368C26.07,56.368,18.284,50.52,15.36,42.364L3.875,51.224C9.706,62.639,21.543,70.46,35.23,70.46ZM35.23,70.46"/>
  <path stroke="none" stroke-dasharray="none" stroke-opacity="1" stroke-miterlimit="4" fill-rule="nonzero" fill="#1976d2" stroke-linecap="butt" fill-opacity="1" data-name="Layer 1" stroke-linejoin="miter" stroke-width="0px" d="M69.773,28.325L66.937,28.325L66.937,28.184L35.23,28.184L35.23,42.276L55.135,42.276C53.743,46.222,51.207,49.621,47.93,52.088C47.93,52.088,47.93,52.088,47.93,52.088L58.834,61.318C58.059,62.022,70.442,52.845,70.442,35.23C70.442,32.87,70.196,30.562,69.755,28.325ZM69.773,28.325"/>
</g>
  <g id="Thin-M" transform="matrix(1.0,0.0,0.0,1.0,822.48001953125,1055.5400390625)">  <path stroke-miterlimit="4" fill-rule="nonzero" stroke="none" fill="#ffc107" stroke-width="0px" stroke-linecap="butt" stroke-dasharray="none" fill-opacity="1" stroke-opacity="1" data-name="Layer 1" stroke-linejoin="miter" d="M69.773,28.325L66.937,28.325L66.937,28.184L35.23,28.184L35.23,42.276L55.135,42.276C52.228,50.485,44.425,56.368,35.23,56.368C23.551,56.368,14.092,46.909,14.092,35.23C14.092,23.551,23.551,14.092,35.23,14.092C40.62,14.092,45.517,16.118,49.252,19.447L59.222,9.477C52.933,3.611,44.513,0,35.23,0C15.765,0,0,15.765,0,35.23C0,54.695,15.765,70.46,35.23,70.46C54.695,70.46,70.46,54.677,70.46,35.23C70.46,32.87,70.213,30.562,69.773,28.325ZM69.773,28.325"/>
  <path fill-opacity="1" stroke="none" stroke-miterlimit="4" stroke-linejoin="miter" fill="#ff3d00" stroke-width="0px" data-name="Layer 1" stroke-linecap="butt" stroke-dasharray="none" stroke-opacity="1" fill-rule="nonzero" d="M4.069,18.83L15.642,27.321C18.778,19.57,26.352,14.092,35.23,14.092C40.62,14.092,45.517,16.118,49.252,19.447L59.222,9.477C52.933,3.611,44.513,0,35.23,0C21.702,0,9.97,7.645,4.069,18.83ZM4.069,18.83"/>
  <path stroke-opacity="1" stroke-width="0px" fill-rule="nonzero" data-name="Layer 1" stroke-dasharray="none" fill="#4caf50" fill-opacity="1" stroke-miterlimit="4" stroke="none" stroke-linecap="butt" stroke-linejoin="miter" d="M35.23,70.46C44.337,70.46,52.598,66.972,58.852,61.318L47.948,52.088C44.407,54.765,40.021,56.368,35.23,56.368C26.07,56.368,18.284,50.52,15.36,42.364L3.875,51.224C9.706,62.639,21.543,70.46,35.23,70.46ZM35.23,70.46"/>
  <path stroke-opacity="1" fill-opacity="1" fill="#1976d2" stroke-linecap="butt" stroke-width="0px" stroke-dasharray="none" stroke-miterlimit="4" fill-rule="nonzero" data-name="Layer 1" stroke-linejoin="miter" stroke="none" d="M69.773,28.325L66.937,28.325L66.937,28.184L35.23,28.184L35.23,42.276L55.135,42.276C53.743,46.222,51.207,49.621,47.93,52.088C47.93,52.088,47.93,52.088,47.93,52.088L58.834,61.318C58.059,62.022,70.442,52.845,70.442,35.23C70.442,32.87,70.196,30.562,69.755,28.325ZM69.773,28.325"/>
</g>
  <g id="Ultralight-M" transform="matrix(1.0,0.0,0.0,1.0,525.77001953125,1055.5400390625)">  <path stroke-opacity="1" data-name="Layer 1" fill-rule="nonzero" stroke-miterlimit="4" fill-opacity="1" stroke-width="0px" stroke-linejoin="miter" stroke-dasharray="none" stroke-linecap="butt" stroke="none" fill="#ffc107" d="M69.773,28.325L66.937,28.325L66.937,28.184L35.23,28.184L35.23,42.276L55.135,42.276C52.228,50.485,44.425,56.368,35.23,56.368C23.551,56.368,14.092,46.909,14.092,35.23C14.092,23.551,23.551,14.092,35.23,14.092C40.62,14.092,45.517,16.118,49.252,19.447L59.222,9.477C52.933,3.611,44.513,0,35.23,0C15.765,0,0,15.765,0,35.23C0,54.695,15.765,70.46,35.23,70.46C54.695,70.46,70.46,54.677,70.46,35.23C70.46,32.87,70.213,30.562,69.773,28.325ZM69.773,28.325"/>
  <path stroke-dasharray="none" data-name="Layer 1" stroke-miterlimit="4" stroke-linejoin="miter" fill-opacity="1" stroke-linecap="butt" stroke-opacity="1" stroke-width="0px" fill-rule="nonzero" stroke="none" fill="#ff3d00" d="M4.069,18.83L15.642,27.321C18.778,19.57,26.352,14.092,35.23,14.092C40.62,14.092,45.517,16.118,49.252,19.447L59.222,9.477C52.933,3.611,44.513,0,35.23,0C21.702,0,9.97,7.645,4.069,18.83ZM4.069,18.83"/>
  <path data-name="Layer 1" fill="#4caf50" stroke-opacity="1" stroke-miterlimit="4" fill-opacity="1" stroke-linecap="butt" stroke-linejoin="miter" stroke-dasharray="none" fill-rule="nonzero" stroke="none" stroke-width="0px" d="M35.23,70.46C44.337,70.46,52.598,66.972,58.852,61.318L47.948,52.088C44.407,54.765,40.021,56.368,35.23,56.368C26.07,56.368,18.284,50.52,15.36,42.364L3.875,51.224C9.706,62.639,21.543,70.46,35.23,70.46ZM35.23,70.46"/>
  <path stroke-dasharray="none" data-name="Layer 1" stroke-linecap="butt" fill="#1976d2" stroke="none" fill-rule="nonzero" stroke-linejoin="miter" fill-opacity="1" stroke-width="0px" stroke-opacity="1" stroke-miterlimit="4" d="M69.773,28.325L66.937,28.325L66.937,28.184L35.23,28.184L35.23,42.276L55.135,42.276C53.743,46.222,51.207,49.621,47.93,52.088C47.93,52.088,47.93,52.088,47.93,52.088L58.834,61.318C58.059,62.022,70.442,52.845,70.442,35.23C70.442,32.87,70.196,30.562,69.755,28.325ZM69.773,28.325"/>
</g>
  <g id="Black-S" transform="matrix(1.0,0.0,0.0,1.0,2907.0949252929686,633.1849448242187)">  <path stroke-linejoin="miter" fill-opacity="1" fill-rule="nonzero" stroke-dasharray="none" stroke-width="0px" stroke="none" stroke-linecap="butt" stroke-opacity="1" stroke-miterlimit="4" fill="#ffc107" data-name="Layer 1" d="M54.632,22.178L52.412,22.178L52.412,22.068L27.585,22.068L27.585,33.102L43.171,33.102C40.895,39.529,34.785,44.136,27.585,44.136C18.441,44.136,11.034,36.73,11.034,27.585C11.034,18.441,18.441,11.034,27.585,11.034C31.806,11.034,35.64,12.62,38.564,15.227L46.371,7.42C41.447,2.827,34.854,0,27.585,0C12.344,0,0,12.344,0,27.585C0,42.826,12.344,55.17,27.585,55.17C42.826,55.17,55.17,42.812,55.17,27.585C55.17,25.737,54.977,23.93,54.632,22.178ZM54.632,22.178"/>
  <path stroke-linecap="butt" stroke-opacity="1" stroke-miterlimit="4" fill="#ff3d00" data-name="Layer 1" stroke-linejoin="miter" stroke-dasharray="none" stroke-width="0px" stroke="none" fill-rule="nonzero" fill-opacity="1" d="M3.186,14.744L12.248,21.392C14.703,15.324,20.634,11.034,27.585,11.034C31.806,11.034,35.64,12.62,38.564,15.227L46.371,7.42C41.447,2.827,34.854,0,27.585,0C16.992,0,7.807,5.986,3.186,14.744ZM3.186,14.744"/>
  <path stroke-linejoin="miter" stroke-miterlimit="4" data-name="Layer 1" stroke-opacity="1" fill-rule="nonzero" stroke-dasharray="none" fill="#4caf50" stroke-linecap="butt" stroke="none" fill-opacity="1" stroke-width="0px" d="M27.585,55.17C34.716,55.17,41.185,52.439,46.081,48.012L37.543,40.785C34.771,42.881,31.337,44.136,27.585,44.136C20.413,44.136,14.317,39.557,12.027,33.171L3.034,40.109C7.6,49.046,16.868,55.17,27.585,55.17ZM27.585,55.17"/>
  <path fill="#1976d2" fill-rule="nonzero" stroke-linecap="butt" fill-opacity="1" stroke="none" stroke-width="0px" data-name="Layer 1" stroke-dasharray="none" stroke-opacity="1" stroke-linejoin="miter" stroke-miterlimit="4" d="M54.632,22.178L52.412,22.178L52.412,22.068L27.585,22.068L27.585,33.102L43.171,33.102C42.081,36.192,40.095,38.854,37.529,40.785C37.529,40.785,37.529,40.785,37.529,40.785L46.067,48.012C45.46,48.564,55.156,41.378,55.156,27.585C55.156,25.737,54.963,23.93,54.618,22.178ZM54.632,22.178"/>
</g>
  <g id="Heavy-S" transform="matrix(1.0,0.0,0.0,1.0,2610.3849252929685,633.1849448242187)">  <path fill="#ffc107" data-name="Layer 1" stroke-miterlimit="4" stroke-linejoin="miter" stroke-linecap="butt" stroke="none" fill-opacity="1" fill-rule="nonzero" stroke-opacity="1" stroke-dasharray="none" stroke-width="0px" d="M54.632,22.178L52.412,22.178L52.412,22.068L27.585,22.068L27.585,33.102L43.171,33.102C40.895,39.529,34.785,44.136,27.585,44.136C18.441,44.136,11.034,36.73,11.034,27.585C11.034,18.441,18.441,11.034,27.585,11.034C31.806,11.034,35.64,12.62,38.564,15.227L46.371,7.42C41.447,2.827,34.854,0,27.585,0C12.344,0,0,12.344,0,27.585C0,42.826,12.344,55.17,27.585,55.17C42.826,55.17,55.17,42.812,55.17,27.585C55.17,25.737,54.977,23.93,54.632,22.178ZM54.632,22.178"/>
  <path fill-rule="nonzero" stroke="none" data-name="Layer 1" stroke-opacity="1" stroke-miterlimit="4" fill="#ff3d00" stroke-width="0px" stroke-linejoin="miter" stroke-dasharray="none" stroke-linecap="butt" fill-opacity="1" d="M3.186,14.744L12.248,21.392C14.703,15.324,20.634,11.034,27.585,11.034C31.806,11.034,35.64,12.62,38.564,15.227L46.371,7.42C41.447,2.827,34.854,0,27.585,0C16.992,0,7.807,5.986,3.186,14.744ZM3.186,14.744"/>
  <path stroke="none" stroke-dasharray="none" fill-rule="nonzero" stroke-linecap="butt" stroke-opacity="1" fill="#4caf50" data-name="Layer 1" fill-opacity="1" stroke-width="0px" stroke-miterlimit="4" stroke-linejoin="miter" d="M27.585,55.17C34.716,55.17,41.185,52.439,46.081,48.012L37.543,40.785C34.771,42.881,31.337,44.136,27.585,44.136C20.413,44.136,14.317,39.557,12.027,33.171L3.034,40.109C7.6,49.046,16.868,55.17,27.585,55.17ZM27.585,55.17"/>
  <path stroke-dasharray="none" stroke="none" stroke-linecap="butt" fill="#1976d2" fill-rule="nonzero" stroke-miterlimit="4" stroke-opacity="1" data-name="Layer 1" fill-opacity="1" stroke-linejoin="miter" stroke-width="0px" d="M54.632,22.178L52.412,22.178L52.412,22.068L27.585,22.068L27.585,33.102L43.171,33.102C42.081,36.192,40.095,38.854,37.529,40.785C37.529,40.785,37.529,40.785,37.529,40.785L46.067,48.012C45.46,48.564,55.156,41.378,55.156,27.585C55.156,25.737,54.963,23.93,54.618,22.178ZM54.632,22.178"/>
</g>
  <g id="Bold-S" transform="matrix(1.0,0.0,0.0,1.0,2313.6749252929685,633.1849448242187)">  <path fill="#ffc107" fill-rule="nonzero" data-name="Layer 1" stroke-miterlimit="4" stroke-dasharray="none" stroke-linecap="butt" stroke-linejoin="miter" stroke="none" stroke-width="0px" fill-opacity="1" stroke-opacity="1" d="M54.632,22.178L52.412,22.178L52.412,22.068L27.585,22.068L27.585,33.102L43.171,33.102C40.895,39.529,34.785,44.136,27.585,44.136C18.441,44.136,11.034,36.73,11.034,27.585C11.034,18.441,18.441,11.034,27.585,11.034C31.806,11.034,35.64,12.62,38.564,15.227L46.371,7.42C41.447,2.827,34.854,0,27.585,0C12.344,0,0,12.344,0,27.585C0,42.826,12.344,55.17,27.585,55.17C42.826,55.17,55.17,42.812,55.17,27.585C55.17,25.737,54.977,23.93,54.632,22.178ZM54.632,22.178"/>
  <path stroke-miterlimit="4" stroke-dasharray="none" stroke="none" stroke-linejoin="miter" fill-rule="nonzero" stroke-width="0px" fill="#ff3d00" stroke-linecap="butt" stroke-opacity="1" data-name="Layer 1" fill-opacity="1" d="M3.186,14.744L12.248,21.392C14.703,15.324,20.634,11.034,27.585,11.034C31.806,11.034,35.64,12.62,38.564,15.227L46.371,7.42C41.447,2.827,34.854,0,27.585,0C16.992,0,7.807,5.986,3.186,14.744ZM3.186,14.744"/>
  <path stroke="none" stroke-opacity="1" stroke-linejoin="miter" fill-rule="nonzero" fill="#4caf50" stroke-dasharray="none" stroke-linecap="butt" data-name="Layer 1" stroke-width="0px" stroke-miterlimit="4" fill-opacity="1" d="M27.585,55.17C34.716,55.17,41.185,52.439,46.081,48.012L37.543,40.785C34.771,42.881,31.337,44.136,27.585,44.136C20.413,44.136,14.317,39.557,12.027,33.171L3.034,40.109C7.6,49.046,16.868,55.17,27.585,55.17ZM27.585,55.17"/>
  <path stroke-miterlimit="4" fill-rule="nonzero" stroke-width="0px" fill-opacity="1" data-name="Layer 1" stroke-dasharray="none" stroke-linecap="butt" stroke-linejoin="miter" stroke="none" stroke-opacity="1" fill="#1976d2" d="M54.632,22.178L52.412,22.178L52.412,22.068L27.585,22.068L27.585,33.102L43.171,33.102C42.081,36.192,40.095,38.854,37.529,40.785C37.529,40.785,37.529,40.785,37.529,40.785L46.067,48.012C45.46,48.564,55.156,41.378,55.156,27.585C55.156,25.737,54.963,23.93,54.618,22.178ZM54.632,22.178"/>
</g>
  <g id="Semibold-S" transform="matrix(1.0,0.0,0.0,1.0,2016.9649252929687,633.1849448242187)">  <path data-name="Layer 1" stroke-opacity="1" stroke-linecap="butt" stroke-miterlimit="4" stroke="none" fill="#ffc107" fill-opacity="1" stroke-linejoin="miter" stroke-width="0px" stroke-dasharray="none" fill-rule="nonzero" d="M54.632,22.178L52.412,22.178L52.412,22.068L27.585,22.068L27.585,33.102L43.171,33.102C40.895,39.529,34.785,44.136,27.585,44.136C18.441,44.136,11.034,36.73,11.034,27.585C11.034,18.441,18.441,11.034,27.585,11.034C31.806,11.034,35.64,12.62,38.564,15.227L46.371,7.42C41.447,2.827,34.854,0,27.585,0C12.344,0,0,12.344,0,27.585C0,42.826,12.344,55.17,27.585,55.17C42.826,55.17,55.17,42.812,55.17,27.585C55.17,25.737,54.977,23.93,54.632,22.178ZM54.632,22.178"/>
  <path stroke="none" data-name="Layer 1" stroke-dasharray="none" fill-rule="nonzero" fill="#ff3d00" fill-opacity="1" stroke-linecap="butt" stroke-opacity="1" stroke-width="0px" stroke-linejoin="miter" stroke-miterlimit="4" d="M3.186,14.744L12.248,21.392C14.703,15.324,20.634,11.034,27.585,11.034C31.806,11.034,35.64,12.62,38.564,15.227L46.371,7.42C41.447,2.827,34.854,0,27.585,0C16.992,0,7.807,5.986,3.186,14.744ZM3.186,14.744"/>
  <path stroke-dasharray="none" stroke-opacity="1" stroke-linecap="butt" fill-opacity="1" stroke-width="0px" stroke-miterlimit="4" stroke="none" stroke-linejoin="miter" fill-rule="nonzero" data-name="Layer 1" fill="#4caf50" d="M27.585,55.17C34.716,55.17,41.185,52.439,46.081,48.012L37.543,40.785C34.771,42.881,31.337,44.136,27.585,44.136C20.413,44.136,14.317,39.557,12.027,33.171L3.034,40.109C7.6,49.046,16.868,55.17,27.585,55.17ZM27.585,55.17"/>
  <path stroke-miterlimit="4" stroke="none" fill-opacity="1" fill-rule="nonzero" stroke-linecap="butt" stroke-opacity="1" stroke-linejoin="miter" stroke-dasharray="none" stroke-width="0px" data-name="Layer 1" fill="#1976d2" d="M54.632,22.178L52.412,22.178L52.412,22.068L27.585,22.068L27.585,33.102L43.171,33.102C42.081,36.192,40.095,38.854,37.529,40.785C37.529,40.785,37.529,40.785,37.529,40.785L46.067,48.012C45.46,48.564,55.156,41.378,55.156,27.585C55.156,25.737,54.963,23.93,54.618,22.178ZM54.632,22.178"/>
</g>
  <g id="Medium-S" transform="matrix(1.0,0.0,0.0,1.0,1720.2549252929687,633.1849448242187)">  <path stroke-opacity="1" fill-rule="nonzero" fill="#ffc107" stroke-linecap="butt" stroke-width="0px" stroke-miterlimit="4" stroke-linejoin="miter" data-name="Layer 1" stroke="none" fill-opacity="1" stroke-dasharray="none" d="M54.632,22.178L52.412,22.178L52.412,22.068L27.585,22.068L27.585,33.102L43.171,33.102C40.895,39.529,34.785,44.136,27.585,44.136C18.441,44.136,11.034,36.73,11.034,27.585C11.034,18.441,18.441,11.034,27.585,11.034C31.806,11.034,35.64,12.62,38.564,15.227L46.371,7.42C41.447,2.827,34.854,0,27.585,0C12.344,0,0,12.344,0,27.585C0,42.826,12.344,55.17,27.585,55.17C42.826,55.17,55.17,42.812,55.17,27.585C55.17,25.737,54.977,23.93,54.632,22.178ZM54.632,22.178"/>
  <path stroke-dasharray="none" stroke-opacity="1" stroke-linejoin="miter" fill-rule="nonzero" stroke-width="0px" stroke-linecap="butt" stroke="none" fill="#ff3d00" data-name="Layer 1" stroke-miterlimit="4" fill-opacity="1" d="M3.186,14.744L12.248,21.392C14.703,15.324,20.634,11.034,27.585,11.034C31.806,11.034,35.64,12.62,38.564,15.227L46.371,7.42C41.447,2.827,34.854,0,27.585,0C16.992,0,7.807,5.986,3.186,14.744ZM3.186,14.744"/>
  <path fill-opacity="1" stroke-linecap="butt" fill="#4caf50" stroke-linejoin="miter" stroke-opacity="1" fill-rule="nonzero" stroke-miterlimit="4" stroke-dasharray="none" stroke-width="0px" data-name="Layer 1" stroke="none" d="M27.585,55.17C34.716,55.17,41.185,52.439,46.081,48.012L37.543,40.785C34.771,42.881,31.337,44.136,27.585,44.136C20.413,44.136,14.317,39.557,12.027,33.171L3.034,40.109C7.6,49.046,16.868,55.17,27.585,55.17ZM27.585,55.17"/>
  <path stroke-opacity="1" stroke-width="0px" stroke="none" stroke-linecap="butt" fill-rule="nonzero" fill-opacity="1" data-name="Layer 1" stroke-linejoin="miter" stroke-dasharray="none" stroke-miterlimit="4" fill="#1976d2" d="M54.632,22.178L52.412,22.178L52.412,22.068L27.585,22.068L27.585,33.102L43.171,33.102C42.081,36.192,40.095,38.854,37.529,40.785C37.529,40.785,37.529,40.785,37.529,40.785L46.067,48.012C45.46,48.564,55.156,41.378,55.156,27.585C55.156,25.737,54.963,23.93,54.618,22.178ZM54.632,22.178"/>
</g>
  <g id="Regular-S" transform="matrix(1.0,0.0,0.0,1.0,1423.5449252929686,633.1849448242187)">  <path fill="#ffc107" stroke-miterlimit="4" fill-rule="nonzero" stroke-dasharray="none" stroke-opacity="1" stroke="none" data-name="Layer 1" stroke-width="0px" stroke-linecap="butt" stroke-linejoin="miter" fill-opacity="1" d="M54.632,22.178L52.412,22.178L52.412,22.068L27.585,22.068L27.585,33.102L43.171,33.102C40.895,39.529,34.785,44.136,27.585,44.136C18.441,44.136,11.034,36.73,11.034,27.585C11.034,18.441,18.441,11.034,27.585,11.034C31.806,11.034,35.64,12.62,38.564,15.227L46.371,7.42C41.447,2.827,34.854,0,27.585,0C12.344,0,0,12.344,0,27.585C0,42.826,12.344,55.17,27.585,55.17C42.826,55.17,55.17,42.812,55.17,27.585C55.17,25.737,54.977,23.93,54.632,22.178ZM54.632,22.178"/>
  <path stroke-width="0px" stroke="none" fill-opacity="1" stroke-linecap="butt" stroke-miterlimit="4" fill="#ff3d00" stroke-dasharray="none" data-name="Layer 1" stroke-opacity="1" stroke-linejoin="miter" fill-rule="nonzero" d="M3.186,14.744L12.248,21.392C14.703,15.324,20.634,11.034,27.585,11.034C31.806,11.034,35.64,12.62,38.564,15.227L46.371,7.42C41.447,2.827,34.854,0,27.585,0C16.992,0,7.807,5.986,3.186,14.744ZM3.186,14.744"/>
  <path stroke-dasharray="none" data-name="Layer 1" fill-rule="nonzero" stroke-width="0px" stroke-linejoin="miter" stroke-opacity="1" fill="#4caf50" stroke-linecap="butt" fill-opacity="1" stroke-miterlimit="4" stroke="none" d="M27.585,55.17C34.716,55.17,41.185,52.439,46.081,48.012L37.543,40.785C34.771,42.881,31.337,44.136,27.585,44.136C20.413,44.136,14.317,39.557,12.027,33.171L3.034,40.109C7.6,49.046,16.868,55.17,27.585,55.17ZM27.585,55.17"/>
  <path stroke-width="0px" data-name="Layer 1" stroke-opacity="1" stroke-linecap="butt" stroke="none" fill-opacity="1" stroke-miterlimit="4" stroke-linejoin="miter" fill="#1976d2" stroke-dasharray="none" fill-rule="nonzero" d="M54.632,22.178L52.412,22.178L52.412,22.068L27.585,22.068L27.585,33.102L43.171,33.102C42.081,36.192,40.095,38.854,37.529,40.785C37.529,40.785,37.529,40.785,37.529,40.785L46.067,48.012C45.46,48.564,55.156,41.378,55.156,27.585C55.156,25.737,54.963,23.93,54.618,22.178ZM54.632,22.178"/>
</g>
  <g id="Light-S" transform="matrix(1.0,0.0,0.0,1.0,1126.8349252929688,633.1849448242187)">  <path data-name="Layer 1" stroke-linecap="butt" stroke-opacity="1" stroke-linejoin="miter" fill="#ffc107" stroke="none" stroke-miterlimit="4" fill-opacity="1" stroke-width="0px" fill-rule="nonzero" stroke-dasharray="none" d="M54.632,22.178L52.412,22.178L52.412,22.068L27.585,22.068L27.585,33.102L43.171,33.102C40.895,39.529,34.785,44.136,27.585,44.136C18.441,44.136,11.034,36.73,11.034,27.585C11.034,18.441,18.441,11.034,27.585,11.034C31.806,11.034,35.64,12.62,38.564,15.227L46.371,7.42C41.447,2.827,34.854,0,27.585,0C12.344,0,0,12.344,0,27.585C0,42.826,12.344,55.17,27.585,55.17C42.826,55.17,55.17,42.812,55.17,27.585C55.17,25.737,54.977,23.93,54.632,22.178ZM54.632,22.178"/>
  <path stroke-linecap="butt" stroke-width="0px" stroke-miterlimit="4" stroke-linejoin="miter" fill-opacity="1" data-name="Layer 1" fill-rule="nonzero" stroke-dasharray="none" fill="#ff3d00" stroke-opacity="1" stroke="none" d="M3.186,14.744L12.248,21.392C14.703,15.324,20.634,11.034,27.585,11.034C31.806,11.034,35.64,12.62,38.564,15.227L46.371,7.42C41.447,2.827,34.854,0,27.585,0C16.992,0,7.807,5.986,3.186,14.744ZM3.186,14.744"/>
  <path stroke-miterlimit="4" stroke-opacity="1" fill-opacity="1" stroke-linecap="butt" fill="#4caf50" stroke-linejoin="miter" data-name="Layer 1" stroke-width="0px" fill-rule="nonzero" stroke-dasharray="none" stroke="none" d="M27.585,55.17C34.716,55.17,41.185,52.439,46.081,48.012L37.543,40.785C34.771,42.881,31.337,44.136,27.585,44.136C20.413,44.136,14.317,39.557,12.027,33.171L3.034,40.109C7.6,49.046,16.868,55.17,27.585,55.17ZM27.585,55.17"/>
  <path stroke="none" stroke-dasharray="none" stroke-opacity="1" stroke-miterlimit="4" fill-rule="nonzero" fill="#1976d2" stroke-linecap="butt" fill-opacity="1" data-name="Layer 1" stroke-linejoin="miter" stroke-width="0px" d="M54.632,22.178L52.412,22.178L52.412,22.068L27.585,22.068L27.585,33.102L43.171,33.102C42.081,36.192,40.095,38.854,37.529,40.785C37.529,40.785,37.529,40.785,37.529,40.785L46.067,48.012C45.46,48.564,55.156,41.378,55.156,27.585C55.156,25.737,54.963,23.93,54.618,22.178ZM54.632,22.178"/>
</g>
  <g id="Thin-S" transform="matrix(1.0,0.0,0.0,1.0,830.1249252929688,633.1849448242187)">  <path stroke-miterlimit="4" fill-rule="nonzero" stroke="none" fill="#ffc107" stroke-width="0px" stroke-linecap="butt" stroke-dasharray="none" fill-opacity="1" stroke-opacity="1" data-name="Layer 1" stroke-linejoin="miter" d="M54.632,22.178L52.412,22.178L52.412,22.068L27.585,22.068L27.585,33.102L43.171,33.102C40.895,39.529,34.785,44.136,27.585,44.136C18.441,44.136,11.034,36.73,11.034,27.585C11.034,18.441,18.441,11.034,27.585,11.034C31.806,11.034,35.64,12.62,38.564,15.227L46.371,7.42C41.447,2.827,34.854,0,27.585,0C12.344,0,0,12.344,0,27.585C0,42.826,12.344,55.17,27.585,55.17C42.826,55.17,55.17,42.812,55.17,27.585C55.17,25.737,54.977,23.93,54.632,22.178ZM54.632,22.178"/>
  <path fill-opacity="1" stroke="none" stroke-miterlimit="4" stroke-linejoin="miter" fill="#ff3d00" stroke-width="0px" data-name="Layer 1" stroke-linecap="butt" stroke-dasharray="none" stroke-opacity="1" fill-rule="nonzero" d="M3.186,14.744L12.248,21.392C14.703,15.324,20.634,11.034,27.585,11.034C31.806,11.034,35.64,12.62,38.564,15.227L46.371,7.42C41.447,2.827,34.854,0,27.585,0C16.992,0,7.807,5.986,3.186,14.744ZM3.186,14.744"/>
  <path stroke-opacity="1" stroke-width="0px" fill-rule="nonzero" data-name="Layer 1" stroke-dasharray="none" fill="#4caf50" fill-opacity="1" stroke-miterlimit="4" stroke="none" stroke-linecap="butt" stroke-linejoin="miter" d="M27.585,55.17C34.716,55.17,41.185,52.439,46.081,48.012L37.543,40.785C34.771,42.881,31.337,44.136,27.585,44.136C20.413,44.136,14.317,39.557,12.027,33.171L3.034,40.109C7.6,49.046,16.868,55.17,27.585,55.17ZM27.585,55.17"/>
  <path stroke-opacity="1" fill-opacity="1" fill="#1976d2" stroke-linecap="butt" stroke-width="0px" stroke-dasharray="none" stroke-miterlimit="4" fill-rule="nonzero" data-name="Layer 1" stroke-linejoin="miter" stroke="none" d="M54.632,22.178L52.412,22.178L52.412,22.068L27.585,22.068L27.585,33.102L43.171,33.102C42.081,36.192,40.095,38.854,37.529,40.785C37.529,40.785,37.529,40.785,37.529,40.785L46.067,48.012C45.46,48.564,55.156,41.378,55.156,27.585C55.156,25.737,54.963,23.93,54.618,22.178ZM54.632,22.178"/>
</g>
  <g id="Ultralight-S" transform="matrix(1.0,0.0,0.0,1.0,533.4149252929687,633.1849448242187)">  <path stroke-opacity="1" data-name="Layer 1" fill-rule="nonzero" stroke-miterlimit="4" fill-opacity="1" stroke-width="0px" stroke-linejoin="miter" stroke-dasharray="none" stroke-linecap="butt" stroke="none" fill="#ffc107" d="M54.632,22.178L52.412,22.178L52.412,22.068L27.585,22.068L27.585,33.102L43.171,33.102C40.895,39.529,34.785,44.136,27.585,44.136C18.441,44.136,11.034,36.73,11.034,27.585C11.034,18.441,18.441,11.034,27.585,11.034C31.806,11.034,35.64,12.62,38.564,15.227L46.371,7.42C41.447,2.827,34.854,0,27.585,0C12.344,0,0,12.344,0,27.585C0,42.826,12.344,55.17,27.585,55.17C42.826,55.17,55.17,42.812,55.17,27.585C55.17,25.737,54.977,23.93,54.632,22.178ZM54.632,22.178"/>
  <path stroke-dasharray="none" data-name="Layer 1" stroke-miterlimit="4" stroke-linejoin="miter" fill-opacity="1" stroke-linecap="butt" stroke-opacity="1" stroke-width="0px" fill-rule="nonzero" stroke="none" fill="#ff3d00" d="M3.186,14.744L12.248,21.392C14.703,15.324,20.634,11.034,27.585,11.034C31.806,11.034,35.64,12.62,38.564,15.227L46.371,7.42C41.447,2.827,34.854,0,27.585,0C16.992,0,7.807,5.986,3.186,14.744ZM3.186,14.744"/>
  <path data-name="Layer 1" fill="#4caf50" stroke-opacity="1" stroke-miterlimit="4" fill-opacity="1" stroke-linecap="butt" stroke-linejoin="miter" stroke-dasharray="none" fill-rule="nonzero" stroke="none" stroke-width="0px" d="M27.585,55.17C34.716,55.17,41.185,52.439,46.081,48.012L37.543,40.785C34.771,42.881,31.337,44.136,27.585,44.136C20.413,44.136,14.317,39.557,12.027,33.171L3.034,40.109C7.6,49.046,16.868,55.17,27.585,55.17ZM27.585,55.17"/>
  <path stroke-dasharray="none" data-name="Layer 1" stroke-linecap="butt" fill="#1976d2" stroke="none" fill-rule="nonzero" stroke-linejoin="miter" fill-opacity="1" stroke-width="0px" stroke-opacity="1" stroke-miterlimit="4" d="M54.632,22.178L52.412,22.178L52.412,22.068L27.585,22.068L27.585,33.102L43.171,33.102C42.081,36.192,40.095,38.854,37.529,40.785C37.529,40.785,37.529,40.785,37.529,40.785L46.067,48.012C45.46,48.564,55.156,41.378,55.156,27.585C55.156,25.737,54.963,23.93,54.618,22.178ZM54.632,22.178"/>
</g>
 </g>
</svg>
